<?xml version="1.0" standalone="no"?>
<!DOCTYPE svg PUBLIC "-//W3C//DTD SVG 20010904//EN"
 "http://www.w3.org/TR/2001/REC-SVG-20010904/DTD/svg10.dtd">
<svg version="1.0" xmlns="http://www.w3.org/2000/svg"
 width="635.000000pt" height="393.000000pt" viewBox="0 0 635.000000 393.000000"
 preserveAspectRatio="xMidYMid meet">

<g transform="translate(0.000000,393.000000) scale(0.100000,-0.100000)"
fill="#000000" stroke="none">
<path d="M2490 3016 c-82 -23 -125 -52 -171 -116 -61 -84 -60 -63 -57 -796 l3
-669 23 -46 c35 -72 98 -130 172 -159 l65 -25 650 0 650 0 56 23 c67 27 143
90 163 135 42 97 41 74 41 762 l0 660 -23 49 c-49 107 -117 161 -230 185 -78
16 -1281 14 -1342 -3z m913 -401 c64 -19 129 -68 157 -116 18 -33 22 -57 23
-124 1 -55 -4 -93 -14 -112 -20 -39 -80 -99 -106 -107 -28 -9 -30 -26 -3 -26
29 0 59 -19 103 -64 54 -55 68 -96 68 -196 0 -101 -15 -142 -70 -197 -40 -39
-52 -46 -121 -76 -53 -23 -221 -35 -465 -33 l-220 1 -3 533 -2 532 302 0 c236
0 314 -3 351 -15z"/>
<path d="M2940 2333 l0 -148 187 5 c168 4 191 7 215 25 40 30 53 62 53 132 0
58 -3 66 -33 95 l-32 33 -195 3 -195 4 0 -149z"/>
<path d="M2940 1885 l0 -167 203 4 c189 3 204 5 233 25 52 37 68 70 68 143 0
70 -12 97 -63 136 -23 17 -47 19 -233 22 l-208 4 0 -167z"/>
</g>
</svg>
