<?xml version="1.0" standalone="no"?>
<!DOCTYPE svg PUBLIC "-//W3C//DTD SVG 20010904//EN"
 "http://www.w3.org/TR/2001/REC-SVG-20010904/DTD/svg10.dtd">
<svg version="1.0" xmlns="http://www.w3.org/2000/svg"
 width="670.000000pt" height="372.000000pt" viewBox="0 0 670.000000 372.000000"
 preserveAspectRatio="xMidYMid meet">

<g transform="translate(0.000000,372.000000) scale(0.100000,-0.100000)"
fill="#000000" stroke="none">
<path d="M2730 3225 l0 -215 175 0 175 0 0 70 0 70 -100 0 -100 0 0 70 0 70
100 0 100 0 0 75 0 75 -175 0 -175 0 0 -215z"/>
<path d="M3230 3362 l0 -79 65 -62 c36 -35 65 -65 65 -67 0 -2 -29 -4 -65 -4
l-65 0 0 -70 0 -70 175 0 175 0 0 71 0 70 -65 65 c-36 36 -65 67 -65 70 0 2
29 4 65 4 l65 0 0 75 0 75 -175 0 -175 0 0 -78z"/>
<path d="M3720 3367 l0 -73 70 -69 71 -70 -68 -5 -68 -5 -3 -67 -3 -68 176 0
175 0 0 75 0 74 -65 66 -65 65 65 0 65 0 0 75 0 75 -175 0 -175 0 0 -73z"/>
<path d="M2270 2794 c0 -8 4 -57 10 -107 12 -121 37 -381 49 -532 16 -183 40
-453 56 -620 14 -141 23 -241 61 -650 8 -93 20 -216 26 -272 l11 -102 46 -15
c25 -8 55 -16 66 -19 11 -3 56 -15 100 -27 44 -12 94 -26 110 -30 17 -4 66
-18 110 -30 207 -57 238 -65 300 -79 22 -5 74 -18 115 -29 69 -19 80 -19 130
-6 70 19 268 71 340 91 30 8 71 18 90 22 19 4 51 13 70 19 19 6 61 18 93 27
64 17 134 36 220 60 l57 16 0 45 c0 25 7 109 15 187 8 78 19 203 25 277 6 74
17 200 25 280 8 80 21 224 30 320 8 96 22 243 30 325 8 83 22 231 30 330 9 99
23 237 31 307 8 70 14 150 14 178 l0 50 -1130 0 c-1017 0 -1130 -2 -1130 -16z
m2056 -186 c-7 -35 -25 -213 -30 -313 -3 -49 -8 -101 -11 -115 -3 -14 -7 -58
-10 -97 -3 -40 -7 -106 -10 -145 -3 -40 -7 -84 -10 -98 -3 -13 -9 -90 -15
-170 -6 -80 -15 -183 -20 -230 -5 -47 -14 -141 -20 -210 -6 -69 -13 -147 -15
-175 -2 -27 -7 -84 -10 -125 -5 -72 -13 -153 -20 -195 -2 -11 -4 -34 -4 -51
-1 -24 -6 -33 -23 -37 -13 -2 -77 -19 -143 -37 -66 -18 -136 -36 -155 -39 -19
-4 -51 -13 -70 -19 -19 -6 -62 -18 -95 -27 -33 -9 -74 -21 -92 -26 -17 -5 -55
-16 -85 -24 -29 -7 -61 -17 -70 -20 -17 -7 -18 4 -18 137 l0 144 -57 18 c-87
28 -132 42 -198 61 -33 9 -78 23 -100 30 -22 7 -67 20 -100 30 -141 41 -130
32 -133 105 -1 36 -9 124 -17 197 -8 73 -15 141 -15 153 0 19 6 20 144 20
l144 0 12 -115 c10 -92 16 -115 28 -115 8 0 38 -6 66 -14 63 -18 162 -43 199
-51 l27 -5 0 225 0 225 -319 0 -320 0 -5 43 c-3 23 -7 86 -10 140 l-5 98 27
10 c15 5 36 13 47 18 39 17 91 38 125 51 19 7 63 26 98 41 34 16 67 29 73 29
6 0 23 6 37 13 32 17 71 34 177 78 l80 34 -345 5 -344 5 -12 70 c-6 39 -14
100 -17 137 l-5 68 357 2 356 3 3 143 3 142 464 0 465 0 -4 -22z"/>
</g>
</svg>
