<?xml version="1.0" standalone="no"?>
<!DOCTYPE svg PUBLIC "-//W3C//DTD SVG 20010904//EN"
 "http://www.w3.org/TR/2001/REC-SVG-20010904/DTD/svg10.dtd">
<svg version="1.0" xmlns="http://www.w3.org/2000/svg"
 width="662.000000pt" height="377.000000pt" viewBox="0 0 662.000000 377.000000"
 preserveAspectRatio="xMidYMid meet">

<g transform="translate(0.000000,377.000000) scale(0.100000,-0.100000)"
fill="#000000" stroke="none">
<path d="M2320 3650 c-12 -7 -12 -12 -2 -22 9 -9 12 -9 12 3 0 12 2 12 10 -1
8 -13 11 -12 25 5 9 11 14 15 11 8 -4 -6 -2 -14 3 -17 5 -3 12 1 15 9 5 14 9
14 33 -2 15 -10 24 -13 20 -6 -4 6 -4 14 1 17 5 3 9 -15 11 -40 l2 -44 -86 0
-85 0 0 -225 0 -225 85 0 c78 0 85 2 85 20 0 10 5 42 11 70 l11 50 59 0 59 0
0 -75 0 -75 85 0 85 0 0 230 0 230 -85 0 -85 0 -1 -27 c-1 -16 -1 -49 -1 -75
l0 -48 -70 0 -70 0 6 28 c3 15 8 68 11 119 4 81 3 92 -12 97 -29 8 -128 5
-143 -4z"/>
<path d="M2606 3634 c-4 -15 -5 -29 -1 -32 3 -3 5 0 5 7 0 7 4 9 10 6 5 -3 7
0 4 8 -3 8 0 18 6 22 6 3 9 1 8 -6 -2 -6 3 -14 11 -17 9 -3 11 0 6 8 -6 10 -4
11 6 4 20 -12 40 -14 33 -3 -3 5 -10 6 -16 3 -6 -4 -8 -3 -5 3 3 5 21 8 39 7
18 -1 40 2 48 7 10 5 -14 9 -66 9 -80 0 -82 -1 -88 -26z"/>
<path d="M2840 3633 c0 -16 4 -23 8 -18 4 6 14 10 22 10 8 0 19 -4 23 -10 5
-6 7 -3 4 7 -7 20 22 33 37 17 8 -9 8 -10 -1 -5 -6 3 -15 1 -19 -5 -4 -7 -3
-9 4 -5 5 3 13 0 15 -6 4 -10 6 -10 6 -1 1 7 8 10 16 7 10 -4 15 0 15 12 1 18
1 18 11 1 8 -13 14 -15 29 -7 13 7 21 7 25 0 5 -8 11 -8 19 -1 7 6 16 8 20 4
4 -4 11 -1 16 7 6 9 10 10 10 3 0 -6 12 -12 28 -13 64 -2 77 -4 84 -14 5 -7 8
-3 8 8 0 15 3 16 15 6 12 -10 15 -9 15 5 0 26 11 12 21 -27 8 -33 8 -33 6 7
l-2 40 -217 3 -218 2 0 -27z m40 7 c0 -5 -4 -10 -10 -10 -5 0 -10 5 -10 10 0
6 5 10 10 10 6 0 10 -4 10 -10z"/>
<path d="M3350 3640 c0 -25 16 -26 29 -2 10 16 10 16 11 -1 0 -14 4 -16 18 -9
19 10 45 5 38 -7 -3 -4 2 -8 10 -8 8 0 13 6 10 12 -2 6 2 12 10 12 7 0 11 -4
8 -9 -3 -4 1 -5 9 -2 11 4 16 -5 18 -33 l4 -38 -85 3 -86 3 -3 -230 -2 -231
85 0 86 0 1 108 c0 59 3 100 6 92 3 -8 9 -17 12 -20 3 -3 23 -31 45 -62 21
-32 39 -58 41 -58 1 0 26 34 56 75 29 41 53 75 54 75 0 0 0 -46 0 -102 l0
-103 83 -3 82 -3 2 206 c1 113 2 215 2 228 1 21 -3 22 -81 25 l-83 3 -20 -33
c-11 -18 -21 -37 -23 -42 -2 -5 -12 -10 -23 -10 -11 -1 -26 -6 -34 -10 -12 -7
-13 -6 -2 5 16 17 15 29 -2 29 -7 0 -35 33 -61 74 -47 73 -48 74 -99 80 -93
11 -116 8 -116 -14z m200 -130 c12 -16 18 -30 13 -30 -4 0 -16 14 -25 30 -22
39 -15 39 12 0z m50 -72 c0 -6 -7 -5 -15 2 -8 7 -15 17 -15 22 0 6 7 5 15 -2
8 -7 15 -17 15 -22z m51 5 c-5 -10 -16 -27 -24 -37 -12 -17 -14 -17 -20 -2 -4
11 -1 16 10 16 9 0 13 3 10 7 -8 7 11 33 25 33 5 0 5 -7 -1 -17z"/>
<path d="M3774 3649 c-2 -4 -13 -5 -24 -2 -13 4 -26 -1 -35 -13 -66 -86 -81
-119 -65 -144 4 -7 13 -9 19 -5 11 6 33 49 35 68 1 4 7 11 14 16 8 5 13 12 12
17 0 5 1 18 4 28 4 17 7 18 22 5 15 -12 17 -12 9 0 -6 11 -4 13 7 8 9 -3 21 0
27 6 8 8 11 8 11 -2 0 -7 5 -9 11 -5 6 3 15 1 19 -5 5 -9 11 -8 24 4 15 15 16
14 17 -12 2 -25 2 -26 6 -4 3 13 0 28 -5 33 -11 11 -101 17 -108 7z"/>
<path d="M3962 3374 l0 -274 199 0 199 0 0 75 0 75 -114 0 -113 0 3 26 c2 25
14 47 14 27 0 -6 11 -10 25 -10 14 0 25 3 25 7 0 4 18 7 40 7 22 0 40 -3 40
-8 0 -4 16 -2 35 4 24 7 35 16 35 29 0 17 -7 19 -62 18 -35 -1 -85 -1 -112 -1
l-49 1 5 100 c6 113 7 111 -77 109 -83 -2 -85 -1 -85 31 0 26 6 34 42 52 4 1
13 -6 21 -16 10 -13 16 -15 21 -8 13 21 -4 31 -48 30 l-44 -1 0 -273z m254
-47 c4 -3 -3 -4 -16 -2 -15 3 -20 0 -17 -9 3 -7 -1 -13 -8 -13 -10 0 -11 5 -5
18 9 17 32 20 46 6z"/>
<path d="M4066 3635 c5 -13 9 -13 22 -3 12 10 16 10 19 1 6 -18 20 -16 20 2 0
10 -11 15 -33 15 -26 0 -32 -3 -28 -15z"/>
<path d="M2400 3631 c0 -5 5 -13 10 -16 6 -3 10 -2 10 4 0 5 -4 13 -10 16 -5
3 -10 2 -10 -4z"/>
<path d="M2711 3617 c-13 -21 -12 -21 5 -5 10 10 16 20 13 22 -3 3 -11 -5 -18
-17z"/>
<path d="M2746 3632 c-3 -5 1 -9 9 -9 8 0 15 4 15 9 0 4 -4 8 -9 8 -6 0 -12
-4 -15 -8z"/>
<path d="M2830 3485 l0 -75 70 0 70 0 0 -155 0 -155 85 0 85 0 0 155 0 155 65
0 c61 0 65 1 65 23 0 12 3 46 6 75 l7 52 -227 0 -226 0 0 -75z"/>
<path d="M2306 3044 c-3 -9 -6 -23 -6 -32 0 -13 3 -12 15 4 11 14 14 15 15 4
0 -9 3 -11 8 -5 12 17 47 41 38 28 -4 -8 -2 -13 4 -13 7 0 10 -7 6 -15 -8 -22
2 -18 15 6 9 17 8 20 -2 14 -8 -6 -10 -4 -4 5 6 10 13 7 27 -11 17 -21 19 -21
13 -4 -6 18 -5 18 15 -2 11 -13 23 -23 26 -23 2 0 -1 10 -7 23 l-12 22 24 -21
c30 -26 55 -25 50 1 -3 20 -3 20 20 0 12 -11 19 -14 14 -6 -5 9 -3 12 6 9 8
-3 13 -10 12 -15 -1 -5 7 -9 17 -9 10 0 18 4 17 9 -4 18 21 18 26 0 4 -15 5
-14 6 4 1 24 27 25 45 2 6 -8 25 -14 42 -14 26 0 30 4 32 27 l2 28 -229 0
c-199 0 -230 -2 -235 -16z m208 -19 c-4 -8 -8 -15 -10 -15 -2 0 -4 7 -4 15 0
8 4 15 10 15 5 0 7 -7 4 -15z m236 5 c0 -11 -22 -18 -37 -12 -22 7 -14 20 12
20 14 0 25 -4 25 -8z"/>
<path d="M2838 3035 c-3 -14 -1 -28 3 -31 8 -5 13 10 10 29 -1 5 3 5 9 2 6 -4
9 -13 6 -21 -3 -8 0 -11 10 -7 9 3 13 12 9 21 -4 11 -2 12 7 5 7 -6 22 -7 33
-3 22 8 48 2 41 -9 -3 -4 7 -7 22 -8 24 -2 24 -1 7 7 -18 8 -18 9 5 10 14 1
42 3 62 4 21 1 35 0 32 -3 -3 -4 -10 -6 -15 -6 -5 0 -9 -3 -9 -7 0 -5 0 -11 0
-14 0 -4 6 -1 14 5 11 9 20 9 35 2 14 -8 22 -8 27 1 5 7 3 8 -7 3 -8 -5 -11
-4 -6 0 12 14 50 13 73 -2 18 -11 21 -11 21 1 0 9 -7 12 -16 8 -17 -6 -16 -4
13 18 13 10 17 10 12 3 -7 -12 5 -18 28 -14 5 1 3 -5 -4 -14 -11 -13 -10 -15
4 -9 9 3 16 17 16 30 l0 24 -219 0 -219 0 -4 -25z"/>
<path d="M3340 3041 c0 -18 30 -52 30 -35 0 5 5 2 10 -6 7 -10 10 -11 10 -2 0
8 9 11 27 7 15 -2 30 1 34 7 6 9 11 9 23 -1 18 -15 64 -22 71 -10 3 4 -2 14
-10 22 -8 9 -15 20 -15 26 0 7 -33 11 -90 11 -81 0 -90 -2 -90 -19z m180 -27
c0 -8 -19 -13 -24 -6 -3 5 1 9 9 9 8 0 15 -2 15 -3z"/>
<path d="M3700 3023 c-20 -35 -21 -37 -2 -20 16 15 20 16 25 3 7 -18 35 -15
48 5 5 8 9 9 9 2 0 -7 12 -10 30 -8 17 2 30 1 30 -3 0 -4 11 -7 25 -7 22 0 25
5 25 33 l0 32 -84 0 -84 0 -22 -37z"/>
<path d="M3963 3033 c3 -18 10 -27 18 -24 21 5 32 5 57 -3 14 -5 22 -3 22 4 0
6 -4 8 -10 5 -5 -3 -10 -1 -10 4 0 15 13 14 29 -1 10 -9 12 -9 7 -1 -3 6 -2
14 4 18 5 3 10 -3 10 -15 0 -12 5 -18 10 -15 6 4 8 10 5 15 -3 5 -1 11 5 15 9
6 14 -8 11 -28 -1 -5 3 -6 9 -2 6 3 8 10 5 15 -3 5 -1 11 5 15 5 3 10 2 10 -4
0 -5 12 -8 28 -6 15 2 21 2 15 -1 -15 -7 -17 -24 -4 -24 5 0 13 9 16 20 4 11
11 18 16 14 5 -3 7 -10 4 -15 -3 -5 2 -6 11 -2 13 5 15 3 9 -8 -7 -11 -6 -12
6 -2 8 6 27 10 41 9 15 -2 25 1 22 6 -3 5 -12 7 -20 4 -7 -3 -16 0 -20 7 -4 7
-4 9 1 5 4 -4 17 -3 28 3 12 7 17 7 13 1 -3 -5 1 -13 10 -16 11 -4 14 -1 12
12 -3 15 -22 17 -191 20 l-188 2 4 -27z m67 -6 c0 -5 -6 -7 -12 -4 -7 2 -20 1
-29 -4 -10 -5 -16 -4 -16 4 0 7 13 12 29 12 15 1 28 -3 28 -8z"/>
<path d="M2670 3014 c0 -8 5 -12 10 -9 6 4 8 11 5 16 -9 14 -15 11 -15 -7z"/>
<path d="M3026 3022 c-3 -5 1 -9 9 -9 8 0 12 4 9 9 -3 4 -7 8 -9 8 -2 0 -6 -4
-9 -8z"/>
<path d="M2928 3013 c7 -3 16 -2 19 1 4 3 -2 6 -13 5 -11 0 -14 -3 -6 -6z"/>
<path d="M2043 2869 c2 -46 10 -124 16 -174 11 -86 19 -154 56 -485 9 -80 22
-201 30 -270 8 -69 19 -174 25 -235 6 -60 17 -166 25 -235 8 -69 21 -190 30
-270 9 -80 22 -199 30 -265 30 -258 35 -304 35 -346 0 -67 9 -89 39 -94 14 -3
42 -11 61 -17 19 -6 51 -15 70 -19 19 -4 60 -14 90 -23 44 -11 285 -74 395
-103 11 -2 31 -7 45 -10 14 -2 31 -6 38 -9 7 -2 13 -3 15 -2 1 1 11 -3 22 -9
11 -6 36 -14 56 -17 20 -3 48 -10 63 -15 14 -6 26 -8 26 -5 0 4 7 1 15 -6 8
-7 15 -9 15 -5 0 4 7 2 15 -5 8 -7 15 -10 15 -6 0 3 10 2 23 -3 16 -6 40 -4
78 9 30 10 86 23 124 30 39 7 77 15 85 18 8 3 18 6 23 7 4 2 8 3 10 5 1 1 16
4 32 6 17 3 44 9 60 15 17 6 41 12 55 15 14 2 52 11 85 20 33 8 76 19 95 24
51 12 183 47 332 87 73 19 78 25 78 98 0 22 7 89 15 150 8 60 22 175 30 255 9
80 22 197 30 260 7 63 19 169 25 235 6 66 17 172 25 235 8 63 21 180 30 260 9
80 22 201 30 270 40 347 51 442 69 648 l5 52 -767 0 c-422 0 -1000 3 -1286 7
l-518 6 5 -84z m2105 -139 c134 0 241 -3 238 -8 -2 -4 -6 -37 -7 -72 -1 -36
-6 -81 -11 -100 -4 -19 -12 -82 -18 -140 -21 -222 -37 -353 -46 -380 -3 -8 -6
-48 -8 -90 -1 -41 -8 -85 -15 -98 -12 -23 -13 -23 -32 -6 -23 21 -17 33 8 13
11 -9 14 -10 9 -1 -4 6 -3 12 2 12 5 0 9 7 9 15 0 18 -9 19 -25 3 -6 -6 -15
-8 -19 -4 -4 4 -1 12 7 17 12 9 12 10 -3 5 -10 -3 -26 3 -37 14 -11 11 -20 16
-20 12 0 -5 3 -12 7 -16 9 -9 11 -46 3 -46 -4 0 -15 10 -26 22 -19 21 -19 21
0 14 16 -5 17 -4 6 9 -10 12 -15 13 -21 4 -4 -7 -5 -17 -3 -24 3 -6 -2 -17
-10 -24 -11 -10 -14 -7 -12 14 0 14 4 25 9 25 4 0 7 6 7 13 0 8 -6 14 -13 14
-9 0 -13 -10 -11 -29 3 -26 2 -27 -16 -18 -18 10 -21 7 -26 -19 -6 -30 -34
-65 -34 -43 0 6 -7 9 -15 6 -8 -4 -12 -11 -8 -17 4 -7 -160 -8 -550 -3 l-557
7 0 -24 c0 -14 6 -29 13 -34 16 -11 387 -9 396 3 3 6 154 10 350 10 l343 0 -6
-51 c-4 -27 -11 -102 -16 -165 -6 -63 -12 -122 -15 -130 -3 -9 -10 -67 -15
-130 -6 -63 -15 -162 -20 -219 -7 -86 -6 -109 6 -133 19 -37 13 -45 -39 -53
-23 -4 -51 -12 -61 -17 -11 -6 -42 -16 -70 -23 -28 -7 -80 -20 -116 -29 -36
-9 -85 -23 -110 -30 -25 -8 -72 -21 -105 -31 -33 -9 -74 -21 -91 -26 -20 -6
-41 -6 -55 0 -13 5 -53 17 -89 26 -36 9 -83 23 -105 30 -22 7 -60 18 -85 25
-49 13 -121 35 -185 55 -22 7 -66 20 -97 30 -52 15 -56 18 -45 36 6 10 15 19
19 19 9 0 0 154 -17 283 -8 59 -15 112 -15 117 0 6 55 10 135 10 l134 0 5 -32
c10 -65 21 -183 24 -255 2 -23 7 -33 18 -33 9 0 13 5 9 12 -4 7 0 5 8 -4 9
-12 17 -14 24 -7 7 7 14 5 22 -5 7 -8 20 -12 28 -9 11 5 14 3 9 -6 -6 -9 -2
-12 15 -9 13 2 29 -4 36 -12 10 -13 15 -13 33 -2 12 7 25 11 28 8 3 -3 -1 -6
-8 -6 -9 0 -7 -5 5 -14 13 -10 25 -11 37 -5 11 6 20 5 25 -3 4 -7 18 -14 31
-14 17 -1 22 4 22 25 0 18 3 22 9 12 5 -8 11 -9 15 -3 3 6 14 11 24 11 27 0
112 22 112 29 0 4 10 8 23 8 36 3 79 12 122 28 l40 14 12 94 c14 110 16 171 5
164 -4 -2 -8 4 -8 14 0 10 3 17 7 14 7 -4 11 10 24 89 l6 38 -85 -2 c-48 -1
-86 -5 -86 -10 0 -5 -5 -9 -11 -9 -5 0 -7 5 -4 10 5 8 -753 18 -882 11 l-33
-2 24 43 24 43 -14 135 c-15 138 -36 354 -53 540 -6 66 -7 108 -1 114 7 7 10
6 10 -2 0 -7 5 -12 11 -12 5 0 8 4 5 8 -3 5 1 9 9 9 8 0 12 -4 8 -10 -7 -12
50 -5 59 8 5 6 8 5 8 -2 0 -7 7 -13 16 -13 8 0 13 3 11 8 -3 4 6 8 20 9 19 1
22 -1 12 -8 -8 -5 -9 -9 -3 -9 5 0 15 5 22 12 9 9 12 9 12 0 0 -7 5 -12 11
-12 5 0 7 5 3 12 -5 7 -3 8 7 2 21 -13 49 -15 49 -4 0 6 5 10 11 10 5 0 7 -6
3 -12 -5 -10 -4 -10 6 -1 11 10 17 10 29 0 8 -6 12 -7 8 -1 -3 6 0 11 8 11 8
0 12 -4 9 -8 -6 -10 38 -5 55 6 10 5 12 4 7 -3 -9 -15 18 -16 45 -2 13 7 19 7
19 0 0 -11 35 -9 46 3 4 4 12 7 18 7 6 0 4 -5 -4 -10 -13 -9 -13 -10 1 -10 8
0 21 6 28 13 11 10 13 10 7 0 -4 -7 -2 -13 3 -13 6 0 11 6 11 13 0 8 3 8 8 2
10 -15 72 -18 72 -5 0 6 4 8 10 5 28 -17 51 -13 60 10 5 14 12 25 15 25 4 0 4
-4 0 -10 -3 -5 78 -9 215 -9 121 1 218 4 215 8 -2 4 2 8 10 8 8 0 12 -4 9 -9
-6 -10 80 -11 90 -1 10 11 37 12 30 2 -3 -5 19 -9 50 -9 41 0 58 4 66 18 10
15 11 15 6 0 -4 -13 1 -16 25 -16 16 1 32 -2 36 -5 3 -4 0 -54 -6 -112 -10
-88 -10 -109 2 -125 13 -18 16 -7 30 104 10 68 17 138 17 155 l0 31 -62 1
c-35 0 -217 1 -405 0 -189 0 -343 3 -343 7 0 4 -87 7 -192 6 -106 0 -185 1
-175 4 9 2 17 8 17 13 0 6 -4 8 -9 5 -4 -3 -7 5 -7 17 1 12 -1 27 -6 33 -4 6
-2 11 7 11 9 0 15 -10 15 -23 0 -29 10 -54 21 -54 14 0 11 28 -3 33 -10 4 -10
8 1 15 7 5 11 14 7 20 -3 6 -2 13 3 16 4 3 8 -9 7 -26 0 -17 5 -33 12 -35 6
-3 12 3 12 12 0 13 2 14 14 3 12 -11 12 -14 -2 -19 -11 -4 -12 -8 -4 -13 6 -4
20 -3 29 2 10 5 24 7 31 5 6 -3 12 0 12 6 0 10 -14 15 -33 12 -5 -1 -6 3 -2 9
3 6 11 8 16 4 11 -7 39 13 39 28 0 6 -8 4 -17 -3 -16 -13 -17 -12 -4 3 15 20
35 14 27 -8 -3 -7 -1 -16 4 -19 6 -4 10 -1 10 6 0 7 3 9 7 6 3 -4 11 -3 18 1
6 4 2 -1 -8 -10 -11 -11 -14 -18 -7 -18 10 0 10 -3 0 -15 -14 -17 -7 -19 20
-5 13 7 21 7 26 -2 5 -8 10 -6 15 8 7 18 8 18 8 1 1 -11 6 -17 14 -14 6 2 11
9 10 14 -1 5 7 9 17 9 12 0 16 -5 12 -16 -5 -12 -3 -13 10 -3 8 7 18 10 21 6
4 -3 7 54 7 128 l0 134 292 -2 c161 -2 402 -3 536 -3z m-1055 -195 c-7 -21
-12 -19 -10 4 0 11 5 18 9 15 4 -3 5 -11 1 -19z m-336 -20 c-15 -32 -24 -32
-24 1 0 18 2 22 8 13 8 -13 13 -5 10 14 -1 5 3 6 8 3 5 -4 4 -16 -2 -31z m77
19 c3 -8 2 -12 -4 -9 -6 3 -10 10 -10 16 0 14 7 11 14 -7z m-196 -2 c14 11 14
9 0 -8 -10 -11 -18 -27 -18 -35 1 -10 5 -8 17 6 12 16 14 17 10 3 -4 -11 1
-21 13 -28 26 -14 35 -13 21 3 -8 11 -5 19 12 35 l23 22 1 -23 c2 -15 0 -18
-6 -8 -5 7 -10 9 -13 5 -8 -17 -3 -37 11 -42 9 -3 11 0 6 8 -5 9 -4 11 3 6 6
-4 21 3 33 15 16 16 21 18 16 6 -4 -10 -1 -17 6 -18 9 0 9 -2 -1 -6 -6 -2 -10
-9 -6 -14 3 -5 0 -9 -6 -9 -7 0 -10 7 -6 18 5 15 5 15 -6 2 -9 -11 -33 -16
-80 -17 -65 -2 -95 10 -68 27 7 4 13 21 13 36 0 16 2 23 4 16 4 -10 8 -10 21
0z m282 -7 c5 3 12 0 16 -6 4 -8 3 -9 -4 -5 -16 9 -15 -7 0 -22 23 -23 -9 -37
-82 -37 -72 -1 -72 0 -40 45 8 11 9 9 4 -12 -4 -18 -2 -28 5 -28 6 0 11 6 11
13 0 8 4 7 10 -3 9 -13 11 -13 19 -1 5 8 7 21 4 30 -5 12 -1 10 13 -4 10 -11
28 -21 39 -22 17 -1 18 0 5 10 -9 7 -16 23 -17 37 0 14 1 19 4 12 3 -6 9 -10
13 -7z m330 -10 c0 -2 -6 -5 -13 -8 -8 -3 -14 1 -14 8 0 7 6 11 14 8 7 -3 13
-6 13 -8z m-669 -4 c7 11 9 11 9 -3 0 -10 -7 -18 -16 -18 -14 0 -14 -1 0 -16
21 -20 21 -21 -14 -22 -17 0 -30 5 -31 11 0 7 -2 20 -4 30 -2 9 1 15 6 11 5
-3 9 0 9 7 0 8 4 8 16 -2 13 -10 17 -10 25 2z m1640 -633 c1 -7 0 -21 -1 -32
-1 -10 3 -15 8 -12 5 3 15 -1 22 -9 7 -8 16 -12 22 -9 5 3 7 -7 4 -23 -2 -15
-5 -31 -5 -35 -1 -4 -8 -5 -16 -2 -8 4 -12 10 -9 15 3 5 10 7 15 4 5 -4 4 5
-2 19 -12 25 -33 25 -43 0 -7 -17 6 -18 22 -2 7 7 12 9 12 4 0 -4 -6 -14 -14
-21 -19 -19 -39 1 -25 27 8 15 6 18 -11 18 -11 0 -20 -5 -20 -11 0 -5 5 -7 10
-4 6 3 10 2 10 -4 0 -5 -6 -11 -12 -14 -10 -3 -10 -7 1 -20 10 -13 10 -17 1
-17 -7 0 -10 -8 -7 -19 7 -27 -15 -32 -44 -11 -24 19 -24 19 -6 50 14 23 16
34 8 44 -6 7 -7 16 -3 20 4 4 7 13 7 19 0 20 26 19 32 -2 6 -23 18 -27 29 -9
5 7 2 9 -7 4 -8 -4 -5 0 5 8 11 9 14 16 8 16 -7 0 -12 5 -12 10 0 15 20 12 21
-2z m-106 -25 c13 -30 14 -43 3 -49 -6 -4 -5 -10 3 -15 10 -6 10 -9 2 -9 -6 0
-14 4 -18 10 -3 5 -12 7 -20 3 -11 -4 -14 1 -11 18 2 16 9 23 20 21 9 -2 16 2
16 8 0 5 -7 10 -15 10 -8 0 -15 5 -15 10 0 17 27 11 35 -7z m-21 -89 c3 -8 2
-12 -3 -9 -5 3 -12 1 -16 -5 -5 -9 6 -14 26 -12 3 1 6 -6 6 -14 0 -10 -4 -11
-11 -4 -21 21 -23 18 -29 -77 -1 -11 -6 -19 -11 -16 -9 6 -2 106 10 136 8 21
20 22 28 1z m138 -9 c3 3 12 -5 20 -17 14 -22 14 -23 -8 -23 -13 0 -24 3 -24
8 0 4 5 7 12 7 6 0 8 3 5 6 -4 4 -14 1 -24 -7 -15 -12 -16 -12 -10 5 4 10 2
26 -5 35 -10 13 -8 12 8 -2 11 -9 23 -15 26 -12z m-82 -81 c0 -6 -10 -9 -23
-7 -22 4 -35 33 -15 33 4 0 8 -4 8 -10 0 -5 4 -10 10 -10 5 0 7 8 4 18 -5 14
-4 15 5 2 6 -8 11 -20 11 -26z m80 21 c0 -2 -9 -3 -19 -2 -11 0 -18 5 -15 9 4
6 34 0 34 -7z m-30 -25 c0 -5 -4 -10 -10 -10 -5 0 -10 5 -10 10 0 6 5 10 10
10 6 0 10 -4 10 -10z m40 0 c0 -5 -2 -10 -4 -10 -3 0 -8 5 -11 10 -3 6 -1 10
4 10 6 0 11 -4 11 -10z m-13 -26 c-3 -3 -12 -4 -19 -1 -8 3 -5 6 6 6 11 1 17
-2 13 -5z m-64 -135 c5 -3 2 -9 -5 -12 -9 -3 -14 3 -15 15 -1 11 1 16 5 12 4
-5 11 -12 15 -15z m-122 -36 c-12 -20 -14 -14 -5 12 4 9 9 14 11 11 3 -2 0
-13 -6 -23z m-14 -105 c-3 -8 -6 -5 -6 6 -1 11 2 17 5 13 3 -3 4 -12 1 -19z
m-10 -100 c-3 -8 -6 -5 -6 6 -1 11 2 17 5 13 3 -3 4 -12 1 -19z m-673 -84 c3
-8 2 -12 -4 -9 -6 3 -10 10 -10 16 0 14 7 11 14 -7z m295 -35 c-12 -10 -25
-16 -28 -13 -3 4 0 9 7 11 6 3 10 8 8 12 -3 4 4 8 16 8 19 2 19 1 -3 -18z
m-244 -9 c3 -5 -1 -10 -10 -10 -9 0 -13 5 -10 10 3 6 8 10 10 10 2 0 7 -4 10
-10z m95 -10 c0 -5 -7 -7 -15 -4 -8 4 -15 8 -15 10 0 2 7 4 15 4 8 0 15 -4 15
-10z m60 -5 c-7 -8 -20 -15 -29 -15 -11 0 -8 5 9 14 33 19 35 19 20 1z m-106
-55 c-5 -5 -22 -11 -39 -14 -30 -6 -30 -5 3 6 17 6 32 18 33 27 0 12 2 12 6 3
3 -8 1 -18 -3 -22z m-49 10 c-3 -5 -14 -10 -23 -9 -14 0 -13 2 3 9 27 11 27
11 20 0z m-48 -20 c-2 -23 -27 -27 -27 -4 0 8 5 12 10 9 6 -3 10 -1 10 4 0 6
2 11 4 11 3 0 4 -9 3 -20z"/>
<path d="M3117 2504 c-4 -4 1 -13 11 -21 9 -8 11 -12 5 -8 -7 3 -13 1 -13 -4
0 -14 17 -14 26 0 7 13 -19 43 -29 33z"/>
<path d="M2884 2073 c3 -21 11 -86 18 -145 l12 -108 436 2 c242 2 332 4 203 5
l-233 3 -1 33 c0 17 0 80 1 140 l1 107 -222 0 -222 0 7 -37z m99 -208 c-3 -9
-8 -14 -10 -11 -3 3 -2 9 2 15 9 16 15 13 8 -4z m82 -5 c-3 -5 -12 -10 -18
-10 -7 0 -6 4 3 10 19 12 23 12 15 0z m125 4 c0 -8 -19 -13 -24 -6 -3 5 1 9 9
9 8 0 15 -2 15 -3z m120 -25 c0 -18 -18 -9 -23 12 -4 16 -3 18 9 8 8 -6 14
-15 14 -20z m-335 -7 c-3 -3 -11 0 -18 7 -9 10 -8 11 6 5 10 -3 15 -9 12 -12z
m105 2 c0 -3 -15 -4 -34 -2 -19 1 -33 5 -31 8 4 7 65 1 65 -6z m165 6 c3 -5
-1 -10 -10 -10 -9 0 -13 5 -10 10 3 6 8 10 10 10 2 0 7 -4 10 -10z m30 0 c3
-5 1 -10 -4 -10 -6 0 -11 5 -11 10 0 6 2 10 4 10 3 0 8 -4 11 -10z m-112 -7
c-7 -2 -19 -2 -25 0 -7 3 -2 5 12 5 14 0 19 -2 13 -5z"/>
<path d="M3418 2103 c46 -2 118 -2 160 0 42 1 5 3 -83 3 -88 0 -123 -2 -77 -3z"/>
<path d="M3736 2057 c3 -10 9 -15 12 -12 3 3 0 11 -7 18 -10 9 -11 8 -5 -6z"/>
<path d="M3623 2025 c0 -8 10 -23 21 -32 21 -18 21 -18 4 2 -9 11 -17 24 -16
28 0 5 -2 11 -4 13 -3 2 -5 -3 -5 -11z"/>
<path d="M3734 2016 c1 -8 5 -18 8 -22 4 -3 5 1 4 10 -1 8 -5 18 -8 22 -4 3
-5 -1 -4 -10z"/>
<path d="M4019 2013 c-13 -16 -12 -17 4 -4 9 7 17 15 17 17 0 8 -8 3 -21 -13z"/>
<path d="M3603 2003 c4 -6 2 -13 -5 -15 -8 -3 -6 -6 4 -10 17 -7 19 15 3 29
-4 4 -5 3 -2 -4z"/>
<path d="M3697 1999 c7 -7 15 -10 18 -7 3 3 -2 9 -12 12 -14 6 -15 5 -6 -5z"/>
<path d="M3976 2000 c5 -8 9 -18 9 -22 0 -3 3 -9 7 -13 3 -4 5 0 4 9 -1 9 -8
22 -16 29 -10 10 -11 9 -4 -3z"/>
<path d="M4045 2000 c3 -5 8 -10 11 -10 2 0 4 5 4 10 0 6 -5 10 -11 10 -5 0
-7 -4 -4 -10z"/>
<path d="M4194 1999 c-8 -14 14 -19 25 -6 8 10 7 14 -5 14 -8 0 -17 -4 -20 -8z"/>
<path d="M3397 1989 c7 -7 15 -10 18 -7 3 3 -2 9 -12 12 -14 6 -15 5 -6 -5z"/>
<path d="M3926 1992 c-3 -5 1 -9 9 -9 8 0 12 4 9 9 -3 4 -7 8 -9 8 -2 0 -6 -4
-9 -8z"/>
<path d="M4087 1974 c3 -7 10 -14 16 -14 6 0 2 -7 -9 -16 -18 -15 -18 -15 3
-4 23 11 22 34 -2 44 -9 3 -12 0 -8 -10z"/>
<path d="M4143 1966 c0 -17 30 -14 33 3 2 7 0 7 -3 1 -3 -7 -9 -8 -17 -1 -9 8
-13 7 -13 -3z"/>
<path d="M4240 1918 c-13 -8 -12 -9 2 -5 9 3 19 1 21 -6 2 -7 7 -9 11 -6 13
12 -19 28 -34 17z"/>
<path d="M3795 1820 c3 -5 8 -10 11 -10 2 0 4 5 4 10 0 6 -5 10 -11 10 -5 0
-7 -4 -4 -10z"/>
<path d="M2731 964 c0 -11 3 -14 6 -6 3 7 2 16 -1 19 -3 4 -6 -2 -5 -13z"/>
<path d="M2750 966 c0 -2 7 -7 16 -10 8 -3 12 -2 9 4 -6 10 -25 14 -25 6z"/>
<path d="M3913 958 c3 -10 2 -20 -3 -23 -5 -3 -10 0 -13 7 -3 9 -4 8 -3 -1 1
-8 9 -15 18 -17 12 -1 15 4 13 18 -3 12 -7 23 -11 27 -4 3 -4 -2 -1 -11z"/>
<path d="M3836 951 c-19 -7 -19 -8 0 -13 13 -3 21 0 21 8 0 8 -1 14 -1 13 -1
0 -10 -4 -20 -8z"/>
<path d="M2796 921 c-4 -5 -2 -12 3 -15 5 -4 12 -2 15 3 4 5 2 12 -3 15 -5 4
-12 2 -15 -3z"/>
<path d="M2853 915 c0 -8 4 -12 9 -9 5 3 6 10 3 15 -9 13 -12 11 -12 -6z"/>
<path d="M3758 923 c7 -3 16 -2 19 1 4 3 -2 6 -13 5 -11 0 -14 -3 -6 -6z"/>
<path d="M3668 903 c7 -3 16 -2 19 1 4 3 -2 6 -13 5 -11 0 -14 -3 -6 -6z"/>
<path d="M2870 2470 c0 -5 5 -10 11 -10 5 0 7 5 4 10 -3 6 -8 10 -11 10 -2 0
-4 -4 -4 -10z"/>
<path d="M2537 2494 c-7 -8 3 -34 13 -34 5 0 8 9 7 20 -1 20 -8 25 -20 14z"/>
<path d="M4153 1853 c4 -3 2 -11 -3 -18 -7 -8 -5 -12 5 -12 8 0 15 9 15 19 0
10 -5 18 -12 18 -6 0 -8 -3 -5 -7z"/>
<path d="M4148 1779 c-10 -16 -14 -28 -9 -25 5 3 11 -1 14 -9 4 -10 1 -12 -11
-8 -18 6 -17 5 9 -15 13 -10 16 -5 18 38 1 28 1 50 -1 50 -2 0 -11 -14 -20
-31z"/>
<path d="M4083 1817 c0 -8 6 -14 14 -14 9 0 10 4 2 14 -6 7 -12 13 -14 13 -1
0 -2 -6 -2 -13z"/>
</g>
</svg>
